<svg xmlns="http://www.w3.org/2000/svg" xmlns:xlink="http://www.w3.org/1999/xlink" version="1.1" viewBox="0 0 100 100">
<defs>
<clipPath id="clip1">
  <path d="M 16.6875 33.53125 L 83.234375 33.53125 L 83.234375 58.011719 L 16.6875 58.011719 Z M 16.6875 33.53125 "/>
</clipPath>
<clipPath id="clip2">
  <path d="M 26.070312 37.898438 L 73.851562 37.898438 L 73.851562 53.625 L 26.070312 53.625 Z M 26.070312 37.898438 "/>
</clipPath>
<clipPath id="clip3">
  <path d="M 29.394531 61.722656 L 70.519531 61.722656 L 70.519531 66.507812 L 29.394531 66.507812 Z M 29.394531 61.722656 "/>
</clipPath>
</defs>
<g id="surface1">
<rect x="0" y="0" width="100" height="100" style="fill:rgb(100%,100%,100%);fill-opacity:1;stroke:none;"/>
<g clip-path="url(#clip1)" clip-rule="nonzero">
<path style=" stroke:none;fill-rule:nonzero;fill:rgb(0%,0%,0%);fill-opacity:1;" d="M 83.078125 38.765625 C 82.765625 36.222656 81.875 35.515625 81.875 35.515625 C 79.136719 32.898438 75.71875 33.460938 72.648438 33.835938 C 67.230469 33.851562 61.835938 34.414062 56.429688 34.710938 C 45.082031 34.757812 33.636719 34.003906 22.347656 35.863281 C 21.285156 36.429688 15.585938 35.972656 16.875 39.089844 C 17.210938 40.386719 18.445312 41.828125 18.40625 43.019531 C 18.578125 43.226562 18.8125 42.75 18.910156 43.046875 C 19.261719 43.855469 19.832031 43.476562 20.304688 43.953125 C 19.648438 45.230469 20.117188 46.292969 20.566406 47.40625 C 19.777344 47.699219 18.765625 47.558594 18.3125 48.519531 C 18.265625 49.21875 18.011719 49.085938 17.734375 49.054688 C 17.53125 49.035156 17.121094 49.113281 17.191406 49.332031 C 17.425781 50.078125 16.417969 50.511719 17.050781 51.242188 C 16.613281 52.035156 17.351562 52.722656 17.25 53.582031 C 17.238281 53.753906 17.304688 53.902344 17.414062 53.945312 C 17.902344 54.160156 17.195312 54.589844 17.269531 55.050781 C 22.242188 58.214844 27.640625 56.027344 32.734375 57.484375 C 34.058594 56.464844 33.066406 57.84375 33.59375 57.628906 C 34.007812 57.382812 34.304688 58.414062 34.773438 57.828125 C 34.84375 57.660156 34.734375 57.265625 34.992188 57.339844 C 35.125 57.382812 35.246094 57.371094 35.265625 57.136719 C 35.292969 56.785156 35.046875 57.003906 34.980469 56.820312 C 35.691406 55.894531 35.515625 58.097656 36.179688 58.007812 C 36.148438 57.738281 35.957031 57.351562 36.351562 57.402344 C 36.746094 57.015625 36.757812 56.695312 37.109375 57.566406 C 37.121094 57.753906 37.183594 57.886719 37.285156 57.976562 C 38.378906 57.03125 39.46875 58.3125 40.617188 57.886719 C 41.320312 57.417969 41.996094 58.140625 42.710938 57.960938 C 42.960938 57.820312 43.214844 57.566406 43.453125 57.992188 C 46.40625 58.082031 49.550781 57.703125 52.347656 58.007812 C 59.820312 57.4375 67.808594 58.242188 75.6875 57.488281 C 77.546875 57.199219 79.476562 56.785156 81.289062 56.457031 C 81.289062 56.457031 82.753906 55.550781 82.753906 51.480469 C 82.753906 47.414062 83.066406 47.921875 83.117188 44.679688 C 83.164062 41.441406 83.382812 41.308594 83.066406 38.765625 Z M 83.078125 38.765625 "/>
</g>
<g clip-path="url(#clip2)" clip-rule="nonzero">
<path style=" stroke:none;fill-rule:nonzero;fill:rgb(100%,100%,100%);fill-opacity:1;" d="M 30.144531 52.59375 L 30.496094 51.058594 C 29.878906 50.953125 29.304688 50.742188 28.769531 50.429688 C 28.234375 50.113281 27.765625 49.710938 27.363281 49.222656 C 26.964844 48.730469 26.648438 48.164062 26.417969 47.515625 C 26.1875 46.867188 26.074219 46.152344 26.074219 45.375 C 26.074219 44.640625 26.160156 43.945312 26.335938 43.296875 C 26.507812 42.640625 26.75 42.035156 27.066406 41.484375 C 27.378906 40.925781 27.757812 40.429688 28.199219 39.984375 C 28.636719 39.542969 29.125 39.167969 29.660156 38.859375 C 30.195312 38.550781 30.769531 38.3125 31.382812 38.144531 C 31.992188 37.980469 32.628906 37.898438 33.289062 37.898438 C 34.007812 37.898438 34.6875 38.023438 35.335938 38.273438 C 35.984375 38.523438 36.550781 38.886719 37.042969 39.359375 C 37.535156 39.839844 37.925781 40.421875 38.210938 41.113281 C 38.5 41.808594 38.644531 42.59375 38.644531 43.472656 C 38.644531 44.191406 38.570312 44.871094 38.417969 45.511719 C 38.265625 46.148438 38.050781 46.746094 37.769531 47.296875 C 37.492188 47.847656 37.152344 48.347656 36.757812 48.800781 C 36.363281 49.246094 35.921875 49.636719 35.429688 49.964844 C 34.9375 50.289062 34.410156 50.550781 33.835938 50.75 C 33.265625 50.945312 32.664062 51.066406 32.035156 51.117188 C 32.273438 51.191406 32.484375 51.285156 32.667969 51.398438 C 32.859375 51.515625 33.042969 51.625 33.230469 51.734375 C 33.414062 51.839844 33.609375 51.929688 33.820312 52.007812 C 34.027344 52.082031 34.269531 52.121094 34.550781 52.121094 C 34.871094 52.121094 35.171875 52.039062 35.464844 51.878906 C 35.753906 51.71875 35.976562 51.476562 36.132812 51.144531 L 37.269531 51.722656 C 37.128906 52.039062 36.941406 52.316406 36.703125 52.554688 C 36.46875 52.789062 36.210938 52.988281 35.925781 53.148438 C 35.640625 53.3125 35.351562 53.429688 35.054688 53.507812 C 34.757812 53.585938 34.472656 53.625 34.207031 53.625 C 33.925781 53.625 33.671875 53.59375 33.445312 53.527344 C 33.21875 53.464844 33.003906 53.382812 32.804688 53.289062 C 32.605469 53.195312 32.417969 53.09375 32.238281 52.984375 C 32.058594 52.878906 31.882812 52.785156 31.703125 52.707031 C 31.527344 52.621094 31.347656 52.5625 31.164062 52.519531 C 30.984375 52.476562 30.785156 52.472656 30.570312 52.503906 C 30.398438 52.523438 30.257812 52.554688 30.144531 52.59375 Z M 31.621094 49.4375 C 32.105469 49.4375 32.566406 49.367188 33.011719 49.234375 C 33.453125 49.101562 33.867188 48.910156 34.246094 48.65625 C 34.628906 48.410156 34.976562 48.109375 35.289062 47.757812 C 35.597656 47.40625 35.863281 47.015625 36.078125 46.585938 C 36.300781 46.152344 36.46875 45.6875 36.589844 45.191406 C 36.710938 44.691406 36.773438 44.167969 36.773438 43.617188 C 36.773438 43.007812 36.679688 42.457031 36.496094 41.960938 C 36.316406 41.46875 36.0625 41.046875 35.734375 40.695312 C 35.410156 40.34375 35.023438 40.078125 34.574219 39.886719 C 34.125 39.699219 33.636719 39.605469 33.101562 39.605469 C 32.40625 39.605469 31.75 39.746094 31.125 40.027344 C 30.503906 40.304688 29.957031 40.699219 29.488281 41.199219 C 29.015625 41.703125 28.644531 42.292969 28.371094 42.980469 C 28.09375 43.667969 27.957031 44.417969 27.957031 45.230469 C 27.957031 45.832031 28.046875 46.390625 28.230469 46.902344 C 28.414062 47.414062 28.667969 47.859375 28.992188 48.234375 C 29.316406 48.609375 29.703125 48.90625 30.152344 49.117188 C 30.601562 49.328125 31.09375 49.4375 31.621094 49.4375 Z M 41.664062 39.589844 L 42.007812 38.136719 L 46.144531 38.136719 L 45.800781 39.589844 L 44.648438 39.589844 L 42.398438 49.4375 L 46.644531 49.4375 C 46.886719 49.4375 47.070312 49.371094 47.203125 49.242188 C 47.332031 49.113281 47.421875 48.957031 47.46875 48.765625 L 47.863281 47.109375 L 49.550781 47.109375 L 48.675781 50.882812 L 39.183594 50.882812 L 39.511719 49.4375 L 40.636719 49.4375 L 42.910156 39.589844 Z M 53.234375 39.589844 L 53.578125 38.136719 L 57.71875 38.136719 L 57.375 39.589844 L 56.21875 39.589844 L 53.96875 49.4375 L 58.214844 49.4375 C 58.457031 49.4375 58.640625 49.371094 58.773438 49.242188 C 58.902344 49.113281 58.992188 48.957031 59.039062 48.765625 L 59.433594 47.109375 L 61.121094 47.109375 L 60.246094 50.882812 L 50.753906 50.882812 L 51.082031 49.4375 L 52.207031 49.4375 L 54.480469 39.589844 Z M 62.324219 50.882812 L 62.652344 49.4375 L 63.78125 49.4375 L 66.050781 39.589844 L 64.804688 39.589844 L 65.152344 38.136719 L 70.851562 38.136719 C 71.328125 38.136719 71.753906 38.210938 72.128906 38.363281 C 72.5 38.515625 72.8125 38.726562 73.066406 38.996094 C 73.324219 39.265625 73.515625 39.589844 73.648438 39.96875 C 73.78125 40.34375 73.847656 40.757812 73.847656 41.203125 C 73.847656 42.003906 73.644531 42.691406 73.238281 43.265625 C 72.835938 43.835938 72.265625 44.265625 71.523438 44.550781 C 71.894531 44.820312 72.179688 45.160156 72.378906 45.574219 C 72.578125 45.992188 72.679688 46.457031 72.679688 46.972656 C 72.679688 47.5625 72.558594 48.097656 72.320312 48.578125 C 72.082031 49.0625 71.757812 49.472656 71.34375 49.816406 C 70.933594 50.15625 70.449219 50.421875 69.894531 50.605469 C 69.339844 50.789062 68.746094 50.882812 68.109375 50.882812 Z M 69.335938 45.214844 L 66.503906 45.214844 L 65.539062 49.4375 L 68.355469 49.4375 C 68.730469 49.4375 69.070312 49.378906 69.382812 49.257812 C 69.691406 49.136719 69.953125 48.972656 70.171875 48.765625 C 70.390625 48.554688 70.558594 48.308594 70.675781 48.027344 C 70.792969 47.746094 70.851562 47.4375 70.851562 47.109375 C 70.851562 46.820312 70.816406 46.5625 70.742188 46.328125 C 70.667969 46.097656 70.566406 45.898438 70.4375 45.734375 C 70.304688 45.570312 70.144531 45.441406 69.957031 45.351562 C 69.769531 45.257812 69.5625 45.214844 69.335938 45.214844 Z M 70.507812 39.589844 L 67.789062 39.589844 L 66.839844 43.753906 L 69.617188 43.753906 C 69.953125 43.753906 70.265625 43.699219 70.554688 43.585938 C 70.847656 43.476562 71.101562 43.324219 71.316406 43.121094 C 71.535156 42.921875 71.703125 42.679688 71.832031 42.398438 C 71.957031 42.121094 72.019531 41.808594 72.019531 41.464844 C 72.019531 41.203125 71.988281 40.957031 71.925781 40.730469 C 71.867188 40.5 71.773438 40.304688 71.648438 40.136719 C 71.523438 39.96875 71.363281 39.835938 71.171875 39.738281 C 70.984375 39.636719 70.761719 39.589844 70.507812 39.589844 Z M 70.507812 39.589844 "/>
</g>
<g clip-path="url(#clip3)" clip-rule="nonzero">
<path style=" stroke:none;fill-rule:nonzero;fill:rgb(0%,0%,0%);fill-opacity:1;" d="M 29.398438 65.378906 L 29.398438 61.863281 C 29.722656 61.769531 30.042969 61.722656 30.367188 61.722656 C 30.820312 61.722656 31.15625 61.804688 31.375 61.96875 C 31.59375 62.132812 31.703125 62.390625 31.703125 62.746094 C 31.703125 62.921875 31.667969 63.074219 31.589844 63.199219 C 31.515625 63.328125 31.398438 63.4375 31.238281 63.527344 L 31.238281 63.5625 C 31.664062 63.695312 31.878906 63.960938 31.878906 64.363281 C 31.878906 64.59375 31.835938 64.78125 31.746094 64.929688 C 31.65625 65.078125 31.5 65.1875 31.285156 65.261719 C 31.066406 65.339844 30.769531 65.378906 30.390625 65.378906 Z M 29.890625 63.363281 L 30.945312 63.363281 C 31.125 63.203125 31.214844 63 31.214844 62.75 C 31.214844 62.535156 31.144531 62.382812 31.011719 62.296875 C 30.878906 62.210938 30.660156 62.167969 30.363281 62.167969 C 30.203125 62.167969 30.042969 62.183594 29.890625 62.214844 Z M 29.890625 64.933594 L 30.320312 64.933594 C 30.601562 64.933594 30.816406 64.917969 30.96875 64.882812 C 31.121094 64.847656 31.226562 64.789062 31.292969 64.710938 C 31.355469 64.628906 31.390625 64.519531 31.390625 64.378906 C 31.390625 63.996094 31.148438 63.800781 30.671875 63.800781 L 29.890625 63.800781 Z M 33.1875 65.425781 C 32.921875 65.425781 32.71875 65.359375 32.582031 65.234375 C 32.445312 65.109375 32.375 64.9375 32.375 64.71875 C 32.375 64.421875 32.488281 64.203125 32.714844 64.058594 C 32.9375 63.914062 33.25 63.84375 33.648438 63.84375 C 33.777344 63.84375 33.902344 63.847656 34.03125 63.859375 L 34.03125 63.5 C 34.03125 63.289062 33.988281 63.144531 33.902344 63.070312 C 33.820312 62.992188 33.667969 62.957031 33.449219 62.957031 C 33.316406 62.957031 33.1875 62.964844 33.0625 62.980469 L 33.003906 63.417969 L 32.648438 63.417969 C 32.597656 63.28125 32.574219 63.152344 32.574219 63.027344 L 32.574219 62.878906 C 32.691406 62.804688 32.847656 62.738281 33.046875 62.679688 C 33.25 62.617188 33.433594 62.589844 33.601562 62.589844 C 33.890625 62.589844 34.117188 62.664062 34.273438 62.8125 C 34.433594 62.960938 34.511719 63.171875 34.511719 63.445312 L 34.511719 65.378906 L 34.085938 65.378906 L 34.0625 64.992188 L 34.015625 64.992188 C 33.917969 65.128906 33.796875 65.234375 33.648438 65.308594 C 33.503906 65.386719 33.351562 65.425781 33.1875 65.425781 Z M 33.25 65.050781 C 33.410156 65.050781 33.558594 65.015625 33.699219 64.941406 C 33.839844 64.867188 33.953125 64.761719 34.042969 64.625 L 34.042969 64.191406 C 33.90625 64.160156 33.730469 64.144531 33.507812 64.144531 C 33.261719 64.144531 33.082031 64.160156 32.96875 64.191406 C 32.933594 64.277344 32.910156 64.355469 32.898438 64.421875 C 32.882812 64.492188 32.878906 64.574219 32.878906 64.664062 C 32.878906 64.804688 32.910156 64.90625 32.972656 64.964844 C 33.039062 65.023438 33.128906 65.050781 33.25 65.050781 Z M 36.382812 65.425781 C 36.242188 65.425781 36.105469 65.40625 35.976562 65.371094 C 35.847656 65.304688 35.738281 65.222656 35.648438 65.125 C 35.558594 65.03125 35.515625 64.917969 35.515625 64.789062 L 35.515625 63.019531 L 35.023438 63.019531 L 35.082031 62.636719 L 35.515625 62.636719 L 35.515625 61.898438 L 35.96875 61.898438 L 35.96875 62.636719 L 36.890625 62.636719 L 36.832031 63.019531 L 35.96875 63.019531 L 35.96875 64.699219 C 35.96875 64.78125 35.988281 64.863281 36.023438 64.945312 C 36.117188 64.980469 36.210938 65 36.308594 65 C 36.371094 65 36.453125 64.988281 36.550781 64.964844 C 36.648438 64.941406 36.742188 64.910156 36.828125 64.875 L 36.957031 65.265625 C 36.878906 65.304688 36.785156 65.339844 36.675781 65.375 C 36.566406 65.40625 36.46875 65.425781 36.382812 65.425781 Z M 38.605469 65.425781 C 38.460938 65.425781 38.328125 65.40625 38.199219 65.371094 C 38.070312 65.304688 37.960938 65.222656 37.871094 65.125 C 37.78125 65.03125 37.738281 64.917969 37.738281 64.789062 L 37.738281 63.019531 L 37.246094 63.019531 L 37.304688 62.636719 L 37.738281 62.636719 L 37.738281 61.898438 L 38.191406 61.898438 L 38.191406 62.636719 L 39.113281 62.636719 L 39.054688 63.019531 L 38.191406 63.019531 L 38.191406 64.699219 C 38.191406 64.78125 38.210938 64.863281 38.246094 64.945312 C 38.339844 64.980469 38.433594 65 38.53125 65 C 38.59375 65 38.675781 64.988281 38.773438 64.964844 C 38.871094 64.941406 38.964844 64.910156 39.050781 64.875 L 39.179688 65.265625 C 39.101562 65.304688 39.007812 65.339844 38.898438 65.375 C 38.789062 65.40625 38.691406 65.425781 38.605469 65.425781 Z M 40.871094 65.425781 C 40.054688 65.425781 39.644531 64.960938 39.644531 64.03125 C 39.644531 63.578125 39.753906 63.226562 39.96875 62.96875 C 40.1875 62.714844 40.492188 62.589844 40.894531 62.589844 C 41.238281 62.589844 41.492188 62.6875 41.664062 62.882812 C 41.832031 63.078125 41.914062 63.347656 41.914062 63.691406 C 41.914062 63.769531 41.914062 63.828125 41.910156 63.867188 L 41.558594 64.210938 L 40.105469 64.1875 C 40.113281 64.460938 40.183594 64.667969 40.316406 64.808594 C 40.449219 64.949219 40.644531 65.023438 40.898438 65.023438 C 41.074219 65.023438 41.226562 65 41.351562 64.953125 C 41.480469 64.910156 41.609375 64.84375 41.742188 64.753906 L 41.890625 65.121094 C 41.738281 65.21875 41.582031 65.292969 41.429688 65.34375 C 41.28125 65.398438 41.09375 65.425781 40.871094 65.425781 Z M 40.101562 63.847656 L 41.441406 63.824219 C 41.464844 63.71875 41.476562 63.625 41.476562 63.539062 C 41.476562 63.367188 41.425781 63.234375 41.328125 63.136719 C 41.226562 63.039062 41.070312 62.992188 40.867188 62.992188 C 40.585938 62.992188 40.390625 63.058594 40.28125 63.191406 C 40.167969 63.328125 40.109375 63.546875 40.101562 63.847656 Z M 42.632812 65.378906 L 42.632812 62.648438 L 43.035156 62.648438 L 43.070312 63.183594 L 43.128906 63.183594 C 43.210938 63.007812 43.335938 62.867188 43.503906 62.765625 C 43.671875 62.664062 43.835938 62.613281 44 62.613281 C 44.03125 62.613281 44.070312 62.628906 44.117188 62.660156 C 44.164062 62.695312 44.195312 62.722656 44.210938 62.75 L 44.15625 63.144531 L 43.886719 63.144531 C 43.695312 63.144531 43.527344 63.183594 43.386719 63.269531 C 43.246094 63.355469 43.15625 63.484375 43.113281 63.65625 L 43.113281 65.378906 Z M 45.207031 66.527344 C 45.011719 66.527344 44.839844 66.492188 44.695312 66.417969 L 44.695312 66.234375 C 44.695312 66.109375 44.714844 65.988281 44.753906 65.867188 L 45.097656 65.867188 L 45.097656 66.125 C 45.152344 66.136719 45.21875 66.140625 45.300781 66.140625 C 45.339844 66.140625 45.410156 66.132812 45.511719 66.117188 C 45.609375 65.890625 45.71875 65.601562 45.835938 65.253906 L 45.464844 65.253906 C 45.25 64.742188 45.074219 64.285156 44.933594 63.890625 C 44.792969 63.492188 44.667969 63.078125 44.558594 62.648438 L 45.03125 62.605469 C 45.234375 63.421875 45.472656 64.167969 45.746094 64.847656 L 45.972656 64.847656 C 46.1875 64.183594 46.390625 63.4375 46.585938 62.605469 L 47.070312 62.648438 C 46.910156 63.304688 46.738281 63.925781 46.550781 64.511719 C 46.367188 65.097656 46.183594 65.601562 46 66.03125 C 45.9375 66.179688 45.828125 66.300781 45.671875 66.390625 C 45.511719 66.480469 45.359375 66.527344 45.207031 66.527344 Z M 48.957031 65.472656 C 48.570312 65.472656 48.257812 65.382812 48.023438 65.207031 C 47.792969 65.035156 47.675781 64.78125 47.675781 64.457031 C 47.675781 64.183594 47.738281 63.96875 47.867188 63.808594 C 47.996094 63.648438 48.1875 63.519531 48.445312 63.417969 L 48.445312 63.371094 C 48.339844 63.265625 48.261719 63.160156 48.210938 63.058594 C 48.160156 62.953125 48.136719 62.839844 48.136719 62.714844 C 48.136719 62.445312 48.226562 62.230469 48.40625 62.074219 C 48.582031 61.917969 48.839844 61.839844 49.167969 61.839844 C 49.414062 61.839844 49.613281 61.878906 49.769531 61.953125 C 49.925781 62.027344 50.046875 62.121094 50.132812 62.238281 L 50.132812 62.453125 C 50.132812 62.585938 50.105469 62.714844 50.054688 62.84375 L 49.699219 62.84375 L 49.648438 62.34375 C 49.523438 62.289062 49.363281 62.261719 49.167969 62.261719 C 48.972656 62.261719 48.835938 62.296875 48.753906 62.367188 C 48.667969 62.4375 48.625 62.550781 48.625 62.710938 C 48.625 62.847656 48.644531 62.953125 48.683594 63.027344 C 48.722656 63.105469 48.792969 63.191406 48.894531 63.292969 L 49.859375 64.203125 C 49.902344 64.054688 49.949219 63.828125 49.996094 63.527344 L 50.441406 63.628906 C 50.398438 63.84375 50.363281 64.015625 50.332031 64.132812 C 50.304688 64.253906 50.269531 64.375 50.230469 64.496094 L 50.914062 65.183594 L 50.558594 65.429688 L 50.148438 64.976562 L 50.101562 64.976562 C 50.058594 65.109375 50.011719 65.222656 49.957031 65.308594 C 49.726562 65.417969 49.394531 65.472656 48.957031 65.472656 Z M 48.96875 65.039062 C 49.238281 65.039062 49.453125 65.015625 49.613281 64.964844 C 49.664062 64.886719 49.699219 64.78125 49.71875 64.652344 L 48.730469 63.714844 C 48.535156 63.773438 48.394531 63.855469 48.304688 63.96875 C 48.210938 64.078125 48.164062 64.242188 48.164062 64.457031 C 48.164062 64.84375 48.433594 65.039062 48.96875 65.039062 Z M 51.660156 65.378906 L 51.660156 61.78125 L 52.15625 61.78125 L 52.15625 65.378906 Z M 53.042969 65.378906 L 53.042969 62.636719 L 53.457031 62.636719 L 53.492188 63.054688 L 53.539062 63.054688 C 53.664062 62.90625 53.800781 62.792969 53.953125 62.710938 C 54.105469 62.628906 54.28125 62.589844 54.484375 62.589844 C 54.757812 62.589844 54.957031 62.648438 55.082031 62.765625 C 55.210938 62.882812 55.273438 63.085938 55.273438 63.371094 L 55.273438 65.378906 L 54.792969 65.378906 L 54.792969 63.0625 C 54.675781 63.027344 54.542969 63.007812 54.402344 63.007812 C 54.203125 63.007812 54.03125 63.039062 53.890625 63.101562 C 53.75 63.164062 53.628906 63.257812 53.523438 63.382812 L 53.523438 65.378906 Z M 56.765625 65.378906 C 56.574219 64.941406 56.402344 64.507812 56.257812 64.070312 C 56.109375 63.636719 55.96875 63.160156 55.832031 62.652344 L 56.304688 62.613281 C 56.5625 63.597656 56.804688 64.367188 57.03125 64.929688 L 57.070312 64.929688 C 57.308594 64.316406 57.554688 63.546875 57.804688 62.613281 L 58.261719 62.652344 C 57.996094 63.589844 57.679688 64.5 57.304688 65.378906 Z M 59.929688 65.425781 C 59.113281 65.425781 58.703125 64.960938 58.703125 64.03125 C 58.703125 63.578125 58.8125 63.226562 59.027344 62.96875 C 59.242188 62.714844 59.550781 62.589844 59.953125 62.589844 C 60.296875 62.589844 60.550781 62.6875 60.722656 62.882812 C 60.890625 63.078125 60.972656 63.347656 60.972656 63.691406 C 60.972656 63.769531 60.972656 63.828125 60.96875 63.867188 L 60.617188 64.210938 L 59.164062 64.1875 C 59.171875 64.460938 59.242188 64.667969 59.375 64.808594 C 59.507812 64.949219 59.703125 65.023438 59.957031 65.023438 C 60.132812 65.023438 60.285156 65 60.410156 64.953125 C 60.539062 64.910156 60.667969 64.84375 60.800781 64.753906 L 60.949219 65.121094 C 60.796875 65.21875 60.640625 65.292969 60.488281 65.34375 C 60.335938 65.398438 60.152344 65.425781 59.929688 65.425781 Z M 59.160156 63.847656 L 60.5 63.824219 C 60.523438 63.71875 60.535156 63.625 60.535156 63.539062 C 60.535156 63.367188 60.484375 63.234375 60.382812 63.136719 C 60.285156 63.039062 60.128906 62.992188 59.921875 62.992188 C 59.644531 62.992188 59.449219 63.058594 59.335938 63.191406 C 59.226562 63.328125 59.167969 63.546875 59.160156 63.847656 Z M 61.691406 65.378906 L 61.691406 62.648438 L 62.09375 62.648438 L 62.128906 63.183594 L 62.1875 63.183594 C 62.269531 63.007812 62.394531 62.867188 62.5625 62.765625 C 62.730469 62.664062 62.894531 62.613281 63.058594 62.613281 C 63.089844 62.613281 63.128906 62.628906 63.175781 62.660156 C 63.222656 62.695312 63.253906 62.722656 63.265625 62.75 L 63.214844 63.144531 L 62.945312 63.144531 C 62.753906 63.144531 62.585938 63.183594 62.445312 63.269531 C 62.304688 63.355469 62.214844 63.484375 62.171875 63.65625 L 62.171875 65.378906 Z M 64.917969 65.425781 C 64.773438 65.425781 64.640625 65.40625 64.511719 65.371094 C 64.382812 65.304688 64.273438 65.222656 64.183594 65.125 C 64.09375 65.03125 64.050781 64.917969 64.050781 64.789062 L 64.050781 63.019531 L 63.558594 63.019531 L 63.617188 62.636719 L 64.050781 62.636719 L 64.050781 61.898438 L 64.503906 61.898438 L 64.503906 62.636719 L 65.425781 62.636719 L 65.367188 63.019531 L 64.503906 63.019531 L 64.503906 64.699219 C 64.503906 64.78125 64.523438 64.863281 64.558594 64.945312 C 64.652344 64.980469 64.746094 65 64.84375 65 C 64.90625 65 64.984375 64.988281 65.085938 64.964844 C 65.183594 64.941406 65.277344 64.910156 65.363281 64.875 L 65.492188 65.265625 C 65.414062 65.304688 65.320312 65.339844 65.210938 65.375 C 65.101562 65.40625 65.003906 65.425781 64.917969 65.425781 Z M 67.183594 65.425781 C 66.367188 65.425781 65.957031 64.960938 65.957031 64.03125 C 65.957031 63.578125 66.066406 63.226562 66.28125 62.96875 C 66.496094 62.714844 66.804688 62.589844 67.207031 62.589844 C 67.550781 62.589844 67.804688 62.6875 67.972656 62.882812 C 68.144531 63.078125 68.226562 63.347656 68.226562 63.691406 C 68.226562 63.769531 68.226562 63.828125 68.222656 63.867188 L 67.871094 64.210938 L 66.417969 64.1875 C 66.425781 64.460938 66.496094 64.667969 66.628906 64.808594 C 66.761719 64.949219 66.957031 65.023438 67.210938 65.023438 C 67.386719 65.023438 67.539062 65 67.664062 64.953125 C 67.792969 64.910156 67.921875 64.84375 68.054688 64.753906 L 68.203125 65.121094 C 68.050781 65.21875 67.894531 65.292969 67.742188 65.34375 C 67.59375 65.398438 67.40625 65.425781 67.183594 65.425781 Z M 66.414062 63.847656 L 67.753906 63.824219 C 67.777344 63.71875 67.789062 63.625 67.789062 63.539062 C 67.789062 63.367188 67.738281 63.234375 67.640625 63.136719 C 67.539062 63.039062 67.382812 62.992188 67.175781 62.992188 C 66.898438 62.992188 66.703125 63.058594 66.589844 63.191406 C 66.480469 63.328125 66.421875 63.546875 66.414062 63.847656 Z M 68.945312 65.378906 L 68.945312 62.648438 L 69.347656 62.648438 L 69.382812 63.183594 L 69.441406 63.183594 C 69.523438 63.007812 69.648438 62.867188 69.8125 62.765625 C 69.980469 62.664062 70.148438 62.613281 70.308594 62.613281 C 70.339844 62.613281 70.378906 62.628906 70.425781 62.660156 C 70.472656 62.695312 70.503906 62.722656 70.519531 62.75 L 70.46875 63.144531 L 70.199219 63.144531 C 70.003906 63.144531 69.835938 63.183594 69.699219 63.269531 C 69.558594 63.355469 69.464844 63.484375 69.421875 63.65625 L 69.421875 65.378906 Z M 68.945312 65.378906 "/>
</g>
</g>
</svg>