<svg xmlns="http://www.w3.org/2000/svg" version="1.1" xmlns:xlink="http://www.w3.org/1999/xlink" xmlns:svgjs="http://svgjs.dev/svgjs" width="1500" height="742" viewBox="0 0 1500 742"><g transform="matrix(1,0,0,1,-0.9084522071641459,0.4346426297771586)"><svg viewBox="0 0 396 196" data-background-color="#fafafa" preserveAspectRatio="xMidYMid meet" height="742" width="1500" xmlns="http://www.w3.org/2000/svg" xmlns:xlink="http://www.w3.org/1999/xlink"><g id="tight-bounds" transform="matrix(1,0,0,1,0.24008861730862918,-0.11477781472615334)"><svg viewBox="0 0 395.52 196.22958907542204" height="196.22958907542204" width="395.52"><g><svg viewBox="0 0 395.52 196.22958907542204" height="196.22958907542204" width="395.52"><g><svg viewBox="0 0 395.52 196.22958907542204" height="196.22958907542204" width="395.52"><g id="textblocktransform"><svg viewBox="0 0 395.52 196.22958907542204" height="196.22958907542204" width="395.52" id="textblock"><g><svg viewBox="0 0 395.52 145.61518657779027" height="145.61518657779027" width="395.52"><path d="M394.594 31.232C392.735 16.117 387.435 11.915 387.435 11.915 371.165-3.653 350.86-0.298 332.619 1.939 300.414 2.03 268.339 5.355 236.208 7.139 168.767 7.411 100.749 2.937 33.643 13.971 27.339 17.356-6.54 14.636 1.121 33.166 3.129 40.875 10.456 49.43 10.232 56.504 11.236 57.743 12.631 54.901 13.226 56.685 15.309 61.492 18.711 59.224 21.501 62.066 17.614 69.654 20.403 75.971 23.062 82.592 18.377 84.315 12.371 83.499 9.675 89.212 9.396 93.354 7.89 92.568 6.235 92.386 5.026 92.265 2.59 92.719 2.999 94.019 4.394 98.462-1.594 101.032 2.162 105.385-0.422 110.101 3.948 114.182 3.353 119.291 3.278 120.318 3.687 121.195 4.338 121.437 7.22 122.737 3.018 125.276 3.464 128.027 33.029 146.83 65.104 133.831 95.394 142.477 103.259 136.431 97.346 144.623 100.489 143.353 102.943 141.872 104.728 148.009 107.499 144.532 107.927 143.535 107.276 141.177 108.8 141.63 109.6 141.872 110.307 141.812 110.418 140.421 110.586 138.335 109.117 139.635 108.726 138.547 112.947 133.045 111.906 146.134 115.866 145.59 115.68 143.988 114.528 141.691 116.889 141.993 119.232 139.696 119.306 137.791 121.389 142.96 121.463 144.079 121.835 144.865 122.43 145.409 128.938 139.786 135.409 147.404 142.233 144.865 146.417 142.084 150.433 146.376 154.672 145.318 156.16 144.472 157.666 142.96 159.098 145.5 176.632 146.044 195.319 143.777 211.943 145.59 256.364 142.205 303.836 146.981 350.674 142.507 361.719 140.784 373.192 138.335 383.958 136.37 383.958 136.37 392.679 130.989 392.679 106.806S394.538 85.645 394.817 66.389C395.096 47.132 396.398 46.346 394.538 31.232Z" opacity="1" fill="#130912" data-fill-palette-color="tertiary"></path><g transform="matrix(1,0,0,1,55.76832,26.068561146666667)"><svg width="283.98335999999995" viewBox="1.83 -37.7 138.69 45.660000000000004" height="93.47806428445695" data-palette-color="#fafafa"><path d="M13.65 4.96L14.67 0.51Q11.99 0.05 9.66-1.32 7.32-2.69 5.58-4.82 3.83-6.96 2.83-9.78 1.83-12.6 1.83-15.99L1.83-15.99Q1.83-19.19 2.59-22.03 3.34-24.88 4.71-27.29 6.08-29.71 8-31.64 9.91-33.57 12.24-34.91 14.58-36.25 17.24-36.98 19.9-37.7 22.78-37.7L22.78-37.7Q25.9-37.7 28.72-36.61 31.54-35.52 33.68-33.45 35.82-31.37 37.07-28.36 38.33-25.34 38.33-21.51L38.33-21.51Q38.33-18.38 37.67-15.6 37.01-12.82 35.79-10.41 34.57-8.01 32.85-6.05 31.13-4.1 28.99-2.67 26.86-1.25 24.37-0.39 21.88 0.46 19.14 0.68L19.14 0.68Q20.17 1 20.98 1.5 21.8 2 22.61 2.47 23.41 2.93 24.32 3.26 25.22 3.59 26.44 3.59L26.44 3.59Q27.83 3.59 29.09 2.89 30.35 2.2 31.03 0.76L31.03 0.76 34.33 2.44Q33.72 3.81 32.69 4.85 31.67 5.88 30.43 6.58 29.2 7.28 27.91 7.62 26.61 7.96 25.44 7.96L25.44 7.96Q24.22 7.96 23.23 7.68 22.24 7.4 21.37 6.98 20.51 6.57 19.73 6.1 18.95 5.64 18.18 5.29 17.41 4.93 16.61 4.75 15.82 4.57 14.89 4.71L14.89 4.71Q14.14 4.79 13.65 4.96L13.65 4.96ZM17.94-4.2L17.94-4.2Q20.04-4.2 21.97-4.79 23.9-5.37 25.56-6.46 27.22-7.54 28.58-9.07 29.93-10.6 30.88-12.48 31.84-14.36 32.36-16.53 32.89-18.7 32.89-21.09L32.89-21.09Q32.89-23.75 32.09-25.9 31.3-28.05 29.88-29.58 28.47-31.1 26.51-31.92 24.56-32.74 22.24-32.74L22.24-32.74Q19.21-32.74 16.5-31.52 13.79-30.3 11.74-28.11 9.69-25.93 8.5-22.94 7.3-19.95 7.3-16.41L7.3-16.41Q7.3-13.79 8.09-11.56 8.89-9.33 10.3-7.69 11.72-6.05 13.67-5.13 15.63-4.2 17.94-4.2ZM47.09-32.79L48.09-37.01 60.1-37.01 59.1-32.79 55.76-32.79 49.22-4.2 61.55-4.2Q62.6-4.2 63.17-4.76 63.74-5.32 63.94-6.15L63.94-6.15 65.09-10.96 69.99-10.96 67.45 0 39.89 0 40.84-4.2 44.11-4.2 50.71-32.79 47.09-32.79ZM80.68-32.79L81.68-37.01 93.7-37.01 92.7-32.79 89.35-32.79 82.81-4.2 95.14-4.2Q96.19-4.2 96.76-4.76 97.33-5.32 97.53-6.15L97.53-6.15 98.68-10.96 103.58-10.96 101.04 0 73.48 0 74.43-4.2 77.7-4.2 84.3-32.79 80.68-32.79ZM107.07 0L108.02-4.2 111.3-4.2 117.89-32.79 114.27-32.79 115.28-37.01 131.83-37.01Q133.9-37.01 135.53-36.35 137.15-35.69 138.26-34.51 139.37-33.33 139.95-31.69 140.52-30.05 140.52-28.1L140.52-28.1Q140.52-24.61 138.76-22.12 137-19.63 133.78-18.38L133.78-18.38Q135.39-17.21 136.26-15.41 137.13-13.6 137.13-11.35L137.13-11.35Q137.13-8.79 136.09-6.69 135.05-4.59 133.26-3.1 131.46-1.61 129.05-0.81 126.63 0 123.87 0L123.87 0 107.07 0ZM127.43-16.46L119.21-16.46 116.4-4.2 124.58-4.2Q126.21-4.2 127.56-4.72 128.9-5.25 129.85-6.15 130.8-7.06 131.32-8.29 131.83-9.52 131.83-10.96L131.83-10.96Q131.83-12.21 131.51-13.22 131.19-14.23 130.62-14.95 130.05-15.67 129.23-16.06 128.41-16.46 127.43-16.46L127.43-16.46ZM130.83-32.79L122.94-32.79 120.18-20.7 128.24-20.7Q129.7-20.7 130.97-21.18 132.24-21.66 133.18-22.53 134.12-23.41 134.67-24.63 135.22-25.85 135.22-27.34L135.22-27.34Q135.22-28.49 134.95-29.48 134.68-30.47 134.14-31.2 133.59-31.93 132.76-32.36 131.93-32.79 130.83-32.79L130.83-32.79Z" opacity="1" transform="matrix(1,0,0,1,0,0)" fill="#fafafa" class="wordmark-text-0" data-fill-palette-color="quaternary" id="text-0"></path></svg></g></svg></g><g transform="matrix(1,0,0,1,75.54432,167.68311408180773)"><svg viewBox="0 0 244.43135999999998 28.546474993614304" height="28.546474993614304" width="244.43135999999998"><g transform="matrix(1,0,0,1,0,0)"><svg width="244.43135999999998" viewBox="3.75 -31.3 352.31 41.15" height="28.546474993614304" data-palette-color="#130912"><path d="M3.75 0L3.75-30.1Q7.9-31.3 12.05-31.3L12.05-31.3Q17.85-31.3 20.68-29.2 23.5-27.1 23.5-22.55L23.5-22.55Q23.5-20.3 22.53-18.65 21.55-17 19.5-15.85L19.5-15.85 19.5-15.55Q25-13.85 25-8.7L25-8.7Q25-5.75 23.85-3.85 22.7-1.95 19.9-0.98 17.1 0 12.25 0L12.25 0 3.75 0ZM7.95-17.25L17-17.25Q19.3-19.3 19.3-22.5L19.3-22.5Q19.3-25.3 17.57-26.4 15.85-27.5 12-27.5L12-27.5Q9.95-27.5 7.95-27.1L7.95-27.1 7.95-17.25ZM7.95-3.8L11.65-3.8Q15.25-3.8 17.2-4.25 19.15-4.7 19.98-5.73 20.8-6.75 20.8-8.55L20.8-8.55Q20.8-13.5 14.65-13.5L14.65-13.5 7.95-13.5 7.95-3.8ZM36.2 0.4Q32.8 0.4 31.02-1.23 29.25-2.85 29.25-5.65L29.25-5.65Q29.25-9.45 32.15-11.3 35.05-13.15 40.15-13.15L40.15-13.15Q41.8-13.15 43.45-13L43.45-13 43.45-16.1Q43.45-18.8 42.35-19.78 41.25-20.75 38.45-20.75L38.45-20.75Q36.75-20.75 35.15-20.55L35.15-20.55 34.65-16.8 31.6-16.8Q30.95-18.55 30.95-20.15L30.95-20.15 30.95-21.4Q32.45-22.35 35.02-23.13 37.6-23.9 39.75-23.9L39.75-23.9Q43.5-23.9 45.52-21.98 47.55-20.05 47.55-16.55L47.55-16.55 47.55 0 43.9 0 43.7-3.3 43.3-3.3Q42.05-1.55 40.17-0.58 38.3 0.4 36.2 0.4L36.2 0.4ZM36.75-2.8Q38.8-2.8 40.6-3.75 42.4-4.7 43.55-6.45L43.55-6.45 43.55-10.15Q41.8-10.55 38.95-10.55L38.95-10.55Q35.8-10.55 34.35-10.15L34.35-10.15Q33.9-9.05 33.72-8.18 33.55-7.3 33.55-6.1L33.55-6.1Q33.55-4.3 34.37-3.55 35.2-2.8 36.75-2.8L36.75-2.8ZM63.6 0.4Q61.75 0.4 60.1-0.05L60.1-0.05Q58.45-0.9 57.3-2.15 56.15-3.4 56.15-5.05L56.15-5.05 56.15-20.2 51.95-20.2 52.45-23.5 56.15-23.5 56.15-29.8 60.05-29.8 60.05-23.5 67.95-23.5 67.45-20.2 60.05-20.2 60.05-5.8Q60.05-4.75 60.5-3.7L60.5-3.7Q61.7-3.25 62.95-3.25L62.95-3.25Q63.75-3.25 65.02-3.55 66.3-3.85 67.4-4.3L67.4-4.3 68.5-0.95Q67.5-0.45 66.1-0.03 64.7 0.4 63.6 0.4L63.6 0.4ZM82.64 0.4Q80.79 0.4 79.14-0.05L79.14-0.05Q77.49-0.9 76.34-2.15 75.19-3.4 75.19-5.05L75.19-5.05 75.19-20.2 70.99-20.2 71.49-23.5 75.19-23.5 75.19-29.8 79.09-29.8 79.09-23.5 86.99-23.5 86.49-20.2 79.09-20.2 79.09-5.8Q79.09-4.75 79.54-3.7L79.54-3.7Q80.74-3.25 81.99-3.25L81.99-3.25Q82.79-3.25 84.07-3.55 85.34-3.85 86.44-4.3L86.44-4.3 87.54-0.95Q86.54-0.45 85.14-0.03 83.74 0.4 82.64 0.4L82.64 0.4ZM102.04 0.4Q91.54 0.4 91.54-11.55L91.54-11.55Q91.54-17.35 94.32-20.63 97.09-23.9 102.24-23.9L102.24-23.9Q106.64-23.9 108.82-21.38 110.99-18.85 110.99-14.45L110.99-14.45Q110.99-13.45 110.94-12.95L110.94-12.95 107.94-10 95.49-10.2Q95.59-6.7 97.29-4.88 98.99-3.05 102.29-3.05L102.29-3.05Q104.54-3.05 106.17-3.63 107.79-4.2 109.49-5.35L109.49-5.35 110.79-2.2Q108.79-0.95 106.84-0.28 104.89 0.4 102.04 0.4L102.04 0.4ZM95.44-13.1L106.94-13.3Q107.24-14.65 107.24-15.75L107.24-15.75Q107.24-17.95 105.94-19.2 104.64-20.45 101.99-20.45L101.99-20.45Q98.39-20.45 96.97-18.73 95.54-17 95.44-13.1L95.44-13.1ZM117.14 0L117.14-23.4 120.59-23.4 120.89-18.8 121.39-18.8Q122.44-21.05 124.59-22.38 126.74-23.7 128.84-23.7L128.84-23.7Q129.24-23.7 129.84-23.28 130.44-22.85 130.64-22.5L130.64-22.5 130.19-19.15 127.89-19.15Q125.39-19.15 123.59-18.05 121.79-16.95 121.24-14.75L121.24-14.75 121.24 0 117.14 0ZM139.19 9.85Q136.69 9.85 134.79 8.9L134.79 8.9 134.79 7.35Q134.79 5.75 135.29 4.2L135.29 4.2 138.24 4.2 138.24 6.4Q138.94 6.55 139.99 6.55L139.99 6.55Q140.49 6.55 141.79 6.35L141.79 6.35Q143.04 3.4 144.59-1.05L144.59-1.05 141.39-1.05Q138.64-7.65 136.84-12.75 135.04-17.85 133.64-23.4L133.64-23.4 137.69-23.75Q140.29-13.25 143.79-4.55L143.79-4.55 145.74-4.55Q148.49-13.05 150.99-23.75L150.99-23.75 155.14-23.4Q153.09-14.95 150.71-7.43 148.34 0.1 145.99 5.6L145.99 5.6Q145.19 7.5 143.16 8.68 141.14 9.85 139.19 9.85L139.19 9.85ZM171.33 0.8Q166.33 0.8 163.33-1.45 160.33-3.7 160.33-7.9L160.33-7.9Q160.33-11.4 161.98-13.45 163.63-15.5 166.93-16.8L166.93-16.8 166.93-17.2Q165.58-18.55 164.93-19.88 164.28-21.2 164.28-22.8L164.28-22.8Q164.28-26.3 166.58-28.3 168.88-30.3 173.13-30.3L173.13-30.3Q176.28-30.3 178.28-29.35 180.28-28.4 181.38-26.9L181.38-26.9 181.38-25.05Q181.38-23.35 180.73-21.7L180.73-21.7 177.68-21.7 177.23-26Q175.63-26.7 173.13-26.7L173.13-26.7Q170.63-26.7 169.56-25.8 168.48-24.9 168.48-22.85L168.48-22.85Q168.48-21.1 168.98-20.13 169.48-19.15 170.78-17.85L170.78-17.85 179.03-10.05Q179.63-12 180.23-15.85L180.23-15.85 184.03-15Q183.48-12.2 183.11-10.65 182.73-9.1 182.23-7.55L182.23-7.55 188.08-1.65 185.03 0.45 181.53-3.45 181.13-3.45Q180.58-1.7 179.88-0.6L179.88-0.6Q176.93 0.8 171.33 0.8L171.33 0.8ZM171.43-2.9Q174.88-2.9 176.93-3.55L176.93-3.55Q177.58-4.55 177.83-6.2L177.83-6.2 169.38-14.25Q166.88-13.5 165.71-12.08 164.53-10.65 164.53-7.9L164.53-7.9Q164.53-2.9 171.43-2.9L171.43-2.9ZM194.48 0L194.48-30.8 198.73-30.8 198.73 0 194.48 0ZM206.33 0L206.33-23.5 209.88-23.5 210.18-19.9 210.58-19.9Q212.18-21.8 214.13-22.85 216.08-23.9 218.68-23.9L218.68-23.9Q222.18-23.9 223.8-22.38 225.43-20.85 225.43-17.2L225.43-17.2 225.43 0 221.33 0 221.33-19.85Q219.78-20.3 217.98-20.3L217.98-20.3Q215.38-20.3 213.58-19.5 211.78-18.7 210.43-17.1L210.43-17.1 210.43 0 206.33 0ZM238.23 0Q235.73-5.6 233.85-11.2 231.98-16.8 230.23-23.35L230.23-23.35 234.28-23.7Q237.58-11.05 240.48-3.85L240.48-3.85 240.83-3.85Q243.88-11.7 247.13-23.7L247.13-23.7 251.03-23.35Q247.63-11.3 242.83 0L242.83 0 238.23 0ZM265.32 0.4Q254.82 0.4 254.82-11.55L254.82-11.55Q254.82-17.35 257.6-20.63 260.37-23.9 265.52-23.9L265.52-23.9Q269.92-23.9 272.1-21.38 274.27-18.85 274.27-14.45L274.27-14.45Q274.27-13.45 274.22-12.95L274.22-12.95 271.22-10 258.77-10.2Q258.87-6.7 260.57-4.88 262.27-3.05 265.57-3.05L265.57-3.05Q267.82-3.05 269.45-3.63 271.07-4.2 272.77-5.35L272.77-5.35 274.07-2.2Q272.07-0.95 270.12-0.28 268.17 0.4 265.32 0.4L265.32 0.4ZM258.72-13.1L270.22-13.3Q270.52-14.65 270.52-15.75L270.52-15.75Q270.52-17.95 269.22-19.2 267.92-20.45 265.27-20.45L265.27-20.45Q261.67-20.45 260.25-18.73 258.82-17 258.72-13.1L258.72-13.1ZM280.42 0L280.42-23.4 283.87-23.4 284.17-18.8 284.67-18.8Q285.72-21.05 287.87-22.38 290.02-23.7 292.12-23.7L292.12-23.7Q292.52-23.7 293.12-23.28 293.72-22.85 293.92-22.5L293.92-22.5 293.47-19.15 291.17-19.15Q288.67-19.15 286.87-18.05 285.07-16.95 284.52-14.75L284.52-14.75 284.52 0 280.42 0ZM308.07 0.4Q306.22 0.4 304.57-0.05L304.57-0.05Q302.92-0.9 301.77-2.15 300.62-3.4 300.62-5.05L300.62-5.05 300.62-20.2 296.42-20.2 296.92-23.5 300.62-23.5 300.62-29.8 304.52-29.8 304.52-23.5 312.42-23.5 311.92-20.2 304.52-20.2 304.52-5.8Q304.52-4.75 304.97-3.7L304.97-3.7Q306.17-3.25 307.42-3.25L307.42-3.25Q308.22-3.25 309.49-3.55 310.77-3.85 311.87-4.3L311.87-4.3 312.97-0.95Q311.97-0.45 310.57-0.03 309.17 0.4 308.07 0.4L308.07 0.4ZM327.47 0.4Q316.97 0.4 316.97-11.55L316.97-11.55Q316.97-17.35 319.74-20.63 322.52-23.9 327.67-23.9L327.67-23.9Q332.07-23.9 334.24-21.38 336.42-18.85 336.42-14.45L336.42-14.45Q336.42-13.45 336.37-12.95L336.37-12.95 333.37-10 320.92-10.2Q321.02-6.7 322.72-4.88 324.42-3.05 327.72-3.05L327.72-3.05Q329.97-3.05 331.59-3.63 333.22-4.2 334.92-5.35L334.92-5.35 336.22-2.2Q334.22-0.95 332.27-0.28 330.32 0.4 327.47 0.4L327.47 0.4ZM320.87-13.1L332.37-13.3Q332.67-14.65 332.67-15.75L332.67-15.75Q332.67-17.95 331.37-19.2 330.07-20.45 327.42-20.45L327.42-20.45Q323.82-20.45 322.39-18.73 320.97-17 320.87-13.1L320.87-13.1ZM342.56 0L342.56-23.4 346.01-23.4 346.31-18.8 346.81-18.8Q347.86-21.05 350.01-22.38 352.16-23.7 354.26-23.7L354.26-23.7Q354.66-23.7 355.26-23.28 355.86-22.85 356.06-22.5L356.06-22.5 355.61-19.15 353.31-19.15Q350.81-19.15 349.01-18.05 347.21-16.95 346.66-14.75L346.66-14.75 346.66 0 342.56 0Z" opacity="1" transform="matrix(1,0,0,1,0,0)" fill="#130912" class="slogan-text-1" data-fill-palette-color="secondary" id="text-1"></path></svg></g></svg></g></svg></g></svg></g><g></g></svg></g><defs></defs></svg><rect width="395.52" height="196.22958907542204" fill="none" stroke="none" visibility="hidden"></rect></g></svg></g></svg>